<svg>
<symbol id="icon-inst"><path d="M12 8.4A3.604 3.604 0 008.4 12c0 1.985 1.615 3.6 3.6 3.6s3.6-1.615 3.6-3.6-1.615-3.6-3.6-3.6z"/><path clip-rule="evenodd" d="M2.4 17.61V6.39A3.99 3.99 0 016.39 2.4h11.22a3.99 3.99 0 013.99 3.99v11.22a3.99 3.99 0 01-3.99 3.99H6.39a3.99 3.99 0 01-3.99-3.99zm4.16-7.644a5.823 5.823 0 007.474 7.474 5.508 5.508 0 003.406-3.406A5.823 5.823 0 009.966 6.56 5.508 5.508 0 006.56 9.966zM18 6.6a1.2 1.2 0 100-2.4 1.2 1.2 0 000 2.4z"/></symbol>
<symbol id="icon-twitter"><path d="M23.0768 2.1309C22.2529 2.49228 21.3751 2.73182 20.4599 2.84812C21.4014 2.28597 22.12 1.4026 22.4578 0.337842C21.58 0.861221 20.6108 1.23091 19.5779 1.43722C18.7443 0.549686 17.5564 0 16.2604 0C13.7459 0 11.7217 2.0409 11.7217 4.54287C11.7217 4.90287 11.7521 5.24902 11.8269 5.57855C8.05108 5.3944 4.71004 3.58473 2.4656 0.827991C2.07376 1.50783 1.84392 2.28597 1.84392 3.12366C1.84392 4.69656 2.65391 6.09086 3.86128 6.89808C3.13159 6.88423 2.41576 6.67239 1.8093 6.3387C1.8093 6.35255 1.8093 6.37055 1.8093 6.38855C1.8093 8.5956 3.38359 10.4288 5.44803 10.8511C5.07834 10.9522 4.67542 11.0006 4.25727 11.0006C3.96651 11.0006 3.67297 10.984 3.39744 10.9231C3.98589 12.7217 5.65572 14.044 7.64124 14.0869C6.09602 15.2957 4.13405 16.024 2.01007 16.024C1.63761 16.024 1.28038 16.0074 0.923157 15.9617C2.93498 17.259 5.31926 17.9998 7.89047 17.9998C16.2479 17.9998 20.8171 11.0768 20.8171 5.07594C20.8171 4.87518 20.8102 4.68133 20.8005 4.48887C21.7019 3.84919 22.4592 3.05027 23.0768 2.1309Z" fill="black" /></symbol>
<symbol id="icon-watsapp"><path d="M23.0768 2.1309C22.2529 2.49228 21.3751 2.73182 20.4599 2.84812C21.4014 2.28597 22.12 1.4026 22.4578 0.337842C21.58 0.861221 20.6108 1.23091 19.5779 1.43722C18.7443 0.549686 17.5564 0 16.2604 0C13.7459 0 11.7217 2.0409 11.7217 4.54287C11.7217 4.90287 11.7521 5.24902 11.8269 5.57855C8.05108 5.3944 4.71004 3.58473 2.4656 0.827991C2.07376 1.50783 1.84392 2.28597 1.84392 3.12366C1.84392 4.69656 2.65391 6.09086 3.86128 6.89808C3.13159 6.88423 2.41576 6.67239 1.8093 6.3387C1.8093 6.35255 1.8093 6.37055 1.8093 6.38855C1.8093 8.5956 3.38359 10.4288 5.44803 10.8511C5.07834 10.9522 4.67542 11.0006 4.25727 11.0006C3.96651 11.0006 3.67297 10.984 3.39744 10.9231C3.98589 12.7217 5.65572 14.044 7.64124 14.0869C6.09602 15.2957 4.13405 16.024 2.01007 16.024C1.63761 16.024 1.28038 16.0074 0.923157 15.9617C2.93498 17.259 5.31926 17.9998 7.89047 17.9998C16.2479 17.9998 20.8171 11.0768 20.8171 5.07594C20.8171 4.87518 20.8102 4.68133 20.8005 4.48887C21.7019 3.84919 22.4592 3.05027 23.0768 2.1309Z" fill="black" /></symbol>
<symbol id="icon-telegram"><path d="M12 8.3999C10.0149 8.3999 8.40002 10.0148 8.40002 11.9999C8.40002 13.985 10.0149 15.5999 12 15.5999C13.9852 15.5999 15.6 13.985 15.6 11.9999C15.6 10.0148 13.9852 8.3999 12 8.3999Z" fill="black" />
<path fill-rule="evenodd" clip-rule="evenodd" d="M2.40002 17.6106V6.3892C2.40002 4.18596 4.18608 2.3999 6.38932 2.3999H17.6107C19.814 2.3999 21.6 4.18596 21.6 6.3892V17.6106C21.6 19.8138 19.814 21.5999 17.6107 21.5999H6.38932C4.18608 21.5999 2.40002 19.8138 2.40002 17.6106ZM6.55995 9.96611C4.926 14.7018 9.29815 19.0739 14.0338 17.44C15.63 16.8894 16.8896 15.6299 17.4401 14.0338C19.074 9.29803 14.7019 4.92588 9.96612 6.55982C8.37002 7.11037 7.11049 8.37002 6.55995 9.96611ZM18 6.59993C18.6628 6.59993 19.2 6.06268 19.2 5.39993C19.2 4.73719 18.6628 4.19993 18 4.19993C17.3373 4.19993 16.8 4.73719 16.8 5.39993C16.8 6.06268 17.3373 6.59993 18 6.59993Z" fill="black" /></symbol>
</svg>
